<?xml version="1.0" standalone="no"?>
<!DOCTYPE svg PUBLIC "-//W3C//DTD SVG 20010904//EN"
 "http://www.w3.org/TR/2001/REC-SVG-20010904/DTD/svg10.dtd">
<svg version="1.0" xmlns="http://www.w3.org/2000/svg"
 width="512.000000pt" height="512.000000pt" viewBox="0 0 512.000000 512.000000"
 preserveAspectRatio="xMidYMid meet">

<g transform="translate(0.000000,512.000000) scale(0.100000,-0.100000)"
fill="#000000" stroke="none">
<path d="M650 5113 c-265 -41 -495 -220 -593 -460 -55 -135 -52 -16 -52 -2093
0 -2079 -3 -1957 52 -2094 56 -137 185 -285 314 -361 35 -20 104 -51 154 -68
l90 -32 1945 0 1945 0 95 33 c125 44 221 105 307 196 85 89 134 170 176 291
l32 90 0 1945 0 1945 -32 90 c-42 121 -91 202 -176 291 -113 120 -259 198
-418 223 -60 10 -3777 14 -3839 4z m3854 -213 c101 -25 176 -69 252 -144 75
-76 119 -151 144 -252 20 -76 20 -115 20 -1944 0 -1829 0 -1868 -20 -1944 -25
-101 -69 -176 -144 -252 -76 -75 -151 -119 -252 -144 -76 -20 -115 -20 -1944
-20 -1829 0 -1868 0 -1944 20 -101 25 -176 69 -252 144 -75 76 -119 151 -144
252 -20 76 -20 115 -20 1944 0 1827 0 1868 20 1944 27 107 63 169 145 251 81
81 144 118 247 145 71 18 134 19 1944 19 1834 1 1872 1 1948 -19z"/>
<path d="M2847 4193 c-4 -3 -7 -526 -7 -1162 0 -976 -3 -1167 -15 -1225 -54
-256 -240 -397 -470 -357 -105 19 -169 47 -231 103 -84 77 -125 170 -140 321
l-7 67 -311 -2 -311 -3 2 -88 c7 -402 219 -693 601 -823 311 -106 700 -96 967
25 212 96 407 305 486 521 67 184 62 93 66 1423 l4 1207 -314 0 c-173 0 -317
-3 -320 -7z"/>
</g>
</svg>
